<?xml version="1.0" encoding="UTF-8"?>
<!DOCTYPE svg PUBLIC "-//W3C//DTD SVG 1.1//EN" "http://www.w3.org/Graphics/SVG/1.1/DTD/svg11.dtd">
<!-- Creator: CorelDRAW 2020 (64-Bit) -->
<svg xmlns="http://www.w3.org/2000/svg" xml:space="preserve" width="139.473mm" height="76.5416mm" version="1.1" style="shape-rendering:geometricPrecision; text-rendering:geometricPrecision; image-rendering:optimizeQuality; fill-rule:evenodd; clip-rule:evenodd"
viewBox="0 0 11498.41 6310.22"
 xmlns:xlink="http://www.w3.org/1999/xlink"
 xmlns:xodm="http://www.corel.com/coreldraw/odm/2003">
 <defs>
  <style type="text/css">
   <![CDATA[
    .fil0 {fill:#FF0038;fill-rule:nonzero}
   ]]>
  </style>
 </defs>
 <g id="Capa_x0020_1">
  <metadata id="CorelCorpID_0Corel-Layer"/>
  <path class="fil0" d="M11.31 6289.62l679.86 -679.86 0 -2513.42c0,-382.11 233.7,-710.36 565.51,-850.16l0 2798.07 702.51 -702.51 0 -2646.22c50.97,-323.37 270.46,-591.49 565.51,-711.13l0 2791.84 691.2 -691.2 0 -2859 -345.6 0c-778.75,0 -1430.4,554.54 -1580.89,1289.45 -734.91,150.48 -1289.42,802.13 -1289.42,1580.86l0 3213.87 11.31 -20.6z"/>
  <path class="fil0" d="M4126.56 1671.15l1038.19 0c-19.28,-239.28 -146.64,-467.03 -505.61,-467.03 -281.76,0 -482.45,208.47 -532.58,467.03zm-3.87 343.47c57.86,274.04 277.92,467.02 598.25,467.02 219.97,0 424.53,-100.34 540.31,-258.55l343.46 285.55c-192.91,262.48 -536.46,432.32 -945.56,432.32 -632.94,0 -1072.89,-482.45 -1072.89,-1080.67 0,-602.1 439.95,-1084.48 1072.89,-1084.48 644.51,0 1018.91,466.95 1018.91,1119.18 0,42.5 -3.84,84.91 -3.84,119.64l-1551.52 0z"/>
  <path class="fil0" d="M6735.66 1258.18l0 740.99c0,374.4 61.78,482.46 331.89,482.46 92.64,0 173.71,-11.57 247.06,-19.28l0 401.4c-23.15,7.72 -185.27,77.2 -486.32,77.2 -351.25,0 -632.95,-219.97 -632.95,-660.01l0 -1022.76 -297.18 0 0 -443.82 297.18 0 0 -814.37 540.31 0 0 814.37 586.66 0 0 443.82 -586.66 0z"/>
  <path class="fil0" d="M8210.05 1107.65c142.77,-196.85 362.75,-328.05 659.95,-331.89 38.63,0 88.76,7.72 131.27,23.13l0 582.81c0,0 -146.7,-30.85 -258.63,-30.85 -385.97,0 -532.59,273.98 -532.59,548.02l0 1011.19 -540.3 0 0 -2095.73 540.3 0 0 293.33z"/>
  <path class="fil0" d="M10969.67 1860.26c0,-331.89 -274.04,-602.09 -617.5,-602.09 -339.68,0 -617.53,270.19 -617.53,602.09 0,328.12 277.85,598.22 617.53,598.22 343.46,0 617.5,-270.1 617.5,-598.22zm528.74 0c0,598.22 -513.3,1080.7 -1146.24,1080.7 -632.94,0 -1146.24,-482.47 -1146.24,-1080.7 0,-602.09 513.31,-1084.48 1146.24,-1084.48 632.95,0 1146.24,482.39 1146.24,1084.48z"/>
  <path class="fil0" d="M5228.5 3954.56l0 661.77 -303.54 0 0 -661.77c0,-183.42 -91.79,-272.96 -257.79,-272.96 -100.44,0 -172.51,34.96 -235.84,93.92 10.95,32.75 13.12,76.45 13.12,183.42l0 657.4 -303.57 0 0 -661.77c0,-181.26 -80.81,-272.96 -238.06,-272.96 -107.05,0 -192.23,34.96 -255.56,93.92l0 840.81 -305.77 0 0 -1185.91 305.77 0 0 74.29c85.2,-61.2 192.22,-96.15 308,-96.15 183.4,0 312.29,45.93 393.11,150.74 100.44,-93.92 231.48,-150.74 371.24,-150.74 349.48,0 508.89,161.63 508.89,546z"/>
  <path class="fil0" d="M6228.58 3308.14l-187.84 0 262.13 -386.6 329.77 28.45 -404.06 358.15zm463.03 122.29l0 1185.91 -303.62 0 0 -78.59c-89.49,61.11 -200.9,96.08 -323.19,96.08 -347.25,0 -506.74,-161.64 -506.74,-545.99l0 -657.4 303.62 0 0 657.4c0,183.48 89.56,273.03 257.7,273.03 109.19,0 198.74,-34.96 268.6,-93.92l0 -836.51 303.62 0z"/>
  <path class="fil0" d="M7102.04 4295.29c146.29,63.33 257.7,96.07 406.22,96.07 139.76,0 194.37,-52.36 194.37,-113.56 0,-67.7 -67.7,-98.28 -251.18,-137.62 -255.48,-56.73 -441.18,-139.71 -441.18,-369.1 0,-213.99 176.94,-362.51 452.13,-362.51 185.62,0 334.14,43.69 463.03,96.08l-100.52 222.8c-115.7,-43.69 -251.1,-76.45 -369.1,-76.45 -115.7,0 -174.67,41.49 -174.67,104.82 0,65.48 72.06,96.08 262.07,135.4 275.18,56.81 434.57,152.88 434.57,369.1 0,224.97 -172.5,373.49 -476.13,373.49 -205.26,0 -338.52,-28.43 -513.19,-113.64l113.56 -224.88z"/>
  <path class="fil0" d="M8285.65 3430.46l303.54 0 0 1185.89 -303.54 0 0 -1185.89zm-24.02 -305.78c0,-98.3 78.6,-179.11 174.75,-179.11 96.05,0 172.5,80.81 172.5,179.11 0,98.3 -76.45,176.89 -172.5,176.89 -96.15,0 -174.75,-78.59 -174.75,-176.89z"/>
  <path class="fil0" d="M10008.76 4395.75c-107.03,146.29 -275.18,238.07 -458.66,238.07 -358.14,0 -648.65,-273.03 -648.65,-611.55 0,-340.72 290.51,-613.69 648.65,-613.69 190.01,0 356.01,91.71 463.03,235.84l-196.57 181.26c-58.97,-87.32 -157.27,-144.13 -266.46,-144.13 -192.15,0 -349.4,152.88 -349.4,340.72 0,185.63 157.25,338.52 349.4,338.52 109.19,0 207.49,-56.83 266.46,-146.29l192.2 181.26z"/>
  <path class="fil0" d="M11192.36 3784.25c-74.29,-63.34 -179.11,-102.69 -292.67,-102.69 -216.22,0 -351.62,161.64 -351.62,338.59 0,179.06 137.62,340.67 351.62,340.67 115.77,0 218.38,-37.16 292.67,-100.44l0 -476.13zm303.56 -353.78l0 1185.83 -303.56 0 0 -87.33c-98.3,65.54 -216.22,104.89 -347.25,104.89 -371.27,0 -589.71,-299.26 -589.71,-613.71 0,-316.72 218.44,-613.75 589.71,-613.75 124.5,0 246.81,39.32 347.25,98.3l0 -74.22 303.56 0z"/>
 </g>
</svg>
